# xmcd
#
# Track frame offsets:
#	150
#	15332
#	31212
#	45917
#	56480
#	70112
#	82935
#	97360
#	109152
#	124412
#	141335
#	151020
#	172317
#	190765
#	202435
#
# Disc length: 2896 seconds
#
# Revision: 1
# Processed by: cddbd v1.5PL3 Copyright (c) Steve Scherf et al.
# Submitted via: CDex 1.50Beta5
#
DISCID=d00b4e0f
DTITLE=越路吹雪 - 越路吹雪ベストセレクション
DYEAR=1900
DGENRE=Pop
TTITLE0=ラスト・ダンスは私に
TTITLE1=サン・トワ・マミー
TTITLE2=夢の中に君がいる
TTITLE3=想い出のソレンツァラ
TTITLE4=夜霧のしのび逢い
TTITLE5=恋ごころ
TTITLE6=別離(わかれ)
TTITLE7=チャンスが欲しいの
TTITLE8=家へ帰るのが怖い
TTITLE9=ワン・レイニー・ナイト・イン・トウキョー
TTITLE10=幸福を売る男
TTITLE11=ミロール
TTITLE12=メランコリー
TTITLE13=ラ・ノビア
TTITLE14=愛の讃歌
EXTD=
EXTT0=
EXTT1=
EXTT2=
EXTT3=
EXTT4=
EXTT5=
EXTT6=
EXTT7=
EXTT8=
EXTT9=
EXTT10=
EXTT11=
EXTT12=
EXTT13=
EXTT14=
PLAYORDER=
